<?xml version="1.0" encoding="utf-8"?>
<!-- Generator: Adobe Illustrator 18.0.0, SVG Export Plug-In . SVG Version: 6.00 Build 0)  -->
<!DOCTYPE svg PUBLIC "-//W3C//DTD SVG 1.1//EN" "http://www.w3.org/Graphics/SVG/1.1/DTD/svg11.dtd">
<svg version="1.1" id="Layer_1" xmlns="http://www.w3.org/2000/svg" xmlns:xlink="http://www.w3.org/1999/xlink" x="0px" y="0px"
	 viewBox="0 0 33 26" enable-background="new 0 0 33 26" xml:space="preserve">
<g transform="translate(1 .99)">
	<path stroke="#FFFFFF" stroke-width="0.5" d="M30,4.5H8.1L7,0.7C6.9,0.3,6.6,0,6.2,0L0.9,0C0.4,0,0,0.4,0,0.9c0,0,0,0,0,0
		c0,0.5,0.4,0.9,0.9,0.9c0,0,0,0,0,0l4.7,0l4,13.6c1.4,4.8,2.1,7.2,2.2,7.4c0.2,0.2,0.4,0,0.7,0H24c0.5,0,0.9,0,0.9-0.5
		s-0.3-0.6-0.8-0.6H13.2l-1.6-5.2h14.5c0.4,0,0.7-0.2,0.8-0.6l3.8-10.2c0.2-0.4-0.1-0.9-0.5-1.1C30.2,4.5,30.1,4.5,30,4.5L30,4.5z
		 M25.6,14.7H11.2L8.7,6.2h20.1C28.8,6.2,25.6,14.7,25.6,14.7z"/>
	<path d="M8.2,5.8h21.2l-3.1,9.9H10.9L8.2,5.8z"/>
	<ellipse stroke="#FFFFFF" cx="25" cy="22.2" rx="2.2" ry="2.2"/>
	<ellipse stroke="#FFFFFF" cx="12.3" cy="22.2" rx="2.2" ry="2.2"/>
</g>
</svg>
