<svg xmlns="http://www.w3.org/2000/svg" width="30" height="31" viewBox="0 0 30 31">
    <g fill="#000" fill-rule="evenodd">
        <path d="M25.578 2.776h-2.44V.316H21.51v2.462L8.49 2.776V.316H6.863v2.462l-2.441-.002C2.178 2.776.353 4.617.353 6.881V26.58c0 2.263 1.825 4.104 4.069 4.104h21.155c2.243 0 4.068-1.84 4.068-4.104l.002-15.595V6.88c0-2.262-1.825-4.105-4.069-4.105zM28.02 26.58c0 1.358-1.094 2.462-2.44 2.462H4.421c-1.347 0-2.441-1.104-2.441-2.462l.001-15.595h26.039l-.002 15.595zm0-17.236H1.981V6.881c0-1.358 1.094-2.463 2.44-2.463h2.442V6.06l1.627.002V4.42h13.02v1.642h1.627l.002-1.642h2.44c1.347 0 2.442 1.104 2.442 2.462l-.002 2.462z"/>
        <path d="M13.372 19.193h3.254c.898 0 1.628-.736 1.628-1.642V14.27c0-.905-.73-1.642-1.628-1.642h-3.254c-.897 0-1.627.737-1.627 1.642v3.282a1.639 1.639 0 0 0 1.627 1.642zm0-4.924h3.254l.002 3.282h-3.256V14.27zM21.51 19.193h3.254c.897 0 1.627-.736 1.627-1.642V14.27c0-.905-.73-1.642-1.627-1.642l-3.254-.001c-.898 0-1.628.736-1.628 1.642v3.282c.001.907.73 1.643 1.628 1.643zm0-4.924h3.254l.001 3.282H21.51V14.27zM5.236 27.402H8.49c.898 0 1.628-.737 1.628-1.642v-3.283c0-.905-.73-1.642-1.628-1.642l-3.254-.001c-.897 0-1.628.737-1.628 1.642v3.282c0 .907.73 1.644 1.628 1.644zm0-4.926H8.49l.002 3.282-3.256.002v-3.284zM13.372 27.402h3.254c.898 0 1.628-.737 1.628-1.642v-3.283c0-.905-.73-1.642-1.628-1.642h-3.254c-.897 0-1.627.737-1.627 1.642v3.283a1.639 1.639 0 0 0 1.627 1.642zm0-4.926h3.254l.002 3.282h-3.256v-3.282zM21.51 27.402h3.254c.897 0 1.627-.737 1.627-1.642v-3.283c0-.905-.73-1.642-1.627-1.642l-3.254-.001c-.898 0-1.628.737-1.628 1.642v3.282c.001.907.73 1.644 1.628 1.644zm0-4.926h3.254l.001 3.282-3.255.002v-3.284z"/>
    </g>
</svg>
