<svg xmlns="http://www.w3.org/2000/svg" width="36" height="30" viewBox="0 0 36 30">
    <g fill="#000" fill-rule="evenodd">
        <path d="M34.125 29.864H22.074c-.958 0-1.703-.87-1.999-1.69L8.958 2.514a1.786 1.786 0 0 1 .21-1.63C9.5.405 10.047.12 10.631.12h2.664c.728 0 1.396.477 1.666 1.19l8.84 20.648h10.323c1.175 0 1.875.703 1.875 1.882v4.141c0 1.18-.7 1.883-1.875 1.883zM10.361 1.981l11.12 25.667c.143.41.475.71.593.71h12.052c.347 0 .375-.028.375-.377L34.5 23.84c0-.349-.028-.377-.376-.377l-11.31.001-9.249-21.612c-.045-.124-.165-.226-.267-.226h-2.664a.278.278 0 0 0-.236.12.26.26 0 0 0-.036.235z"/>
        <path d="M10.875 6.145h4.875V4.638h-4.875zM30.74 22.232l1.06 1.064-6.192 6.217-1.06-1.065zM22.589 13.594l-3.32-7.488 2.213-4.995C21.63.727 22.04.12 23.147.12h2.665c.618 0 1.18.277 1.502.738.302.434.365.984.172 1.511l-.018.044-4.88 11.18zm-1.68-7.49l1.668 3.762 3.506-8.03c.016-.052.016-.09 0-.114-.032-.048-.13-.096-.271-.096h-2.665c-.215 0-.28.041-.28.041l-1.958 4.438zM14.37 29.864H1.875C.7 29.864 0 29.161 0 27.982V23.84c0-1.179.7-1.882 1.875-1.882h10.749l1.282-3.296 3.461 7.561-1.008 1.975c-.301.812-1.04 1.666-1.989 1.666zm-12.495-6.4c-.348 0-.376.029-.376.377v4.141c0 .35.028.377.376.377H14.37c.119 0 .45-.299.594-.708l.04-.095.698-1.367-1.682-3.675-.37.95H1.874z"/>
        <path d="M20.625 6.145h4.876V4.638h-4.876zM5.704 22.232l6.191 6.216-1.06 1.065-6.191-6.217z"/>
    </g>
</svg>
