<svg xmlns="http://www.w3.org/2000/svg" width="30" height="30" viewBox="0 0 30 30">
    <path fill="#000" fill-rule="evenodd" d="M27.186 30H2.813A2.817 2.817 0 0 1 0 27.186V2.813A2.816 2.816 0 0 1 2.813 0h24.373A2.817 2.817 0 0 1 30 2.813v24.373A2.818 2.818 0 0 1 27.186 30zM2.813 1.875a.939.939 0 0 0-.938.937v24.374c0 .518.42.939.938.939h24.373a.94.94 0 0 0 .939-.939V2.812a.938.938 0 0 0-.939-.937H2.813zm18.762 10.156a2.818 2.818 0 0 1-1.887-2.656c0-1.222.783-2.265 1.875-2.652V5.625a.937.937 0 1 1 1.875 0v1.098a2.818 2.818 0 0 1 1.875 2.652c0 1.227-.79 2.273-1.888 2.656.008.051.013.103.013.156v12.188a.937.937 0 1 1-1.875 0V12.187c0-.053.004-.105.012-.156zM7.5 19.687a.938.938 0 1 1 0 1.876.938.938 0 0 1 0-1.876zm6.575-2.03A2.818 2.818 0 0 1 12.188 15c0-1.222.783-2.265 1.875-2.652V5.625a.937.937 0 1 1 1.875 0v6.723A2.818 2.818 0 0 1 17.813 15c0 1.227-.79 2.273-1.888 2.656.008.051.013.103.013.156v6.563a.937.937 0 1 1-1.875 0v-6.563c0-.053.004-.105.012-.156zm8.425-9.22a.938.938 0 1 1 0 1.876.938.938 0 0 1 0-1.876zM6.563 17.973V5.625a.937.937 0 1 1 1.875 0v12.348a2.818 2.818 0 0 1 1.875 2.652 2.818 2.818 0 0 1-1.875 2.652v1.098a.937.937 0 1 1-1.875 0v-1.098a2.818 2.818 0 0 1-1.875-2.652c0-1.222.783-2.265 1.875-2.652zM15 14.063a.939.939 0 0 1 0 1.874.939.939 0 0 1 0-1.875z"/>
</svg>
