<svg xmlns="http://www.w3.org/2000/svg" width="40" height="40" viewBox="0 0 40 40">
    <g fill="none" fill-rule="evenodd">
        <path fill="#FFF" d="M39.66 20.006c0 10.856-8.879 19.656-19.83 19.656C8.878 39.662 0 30.862 0 20.006 0 9.151 8.878.351 19.83.351c10.951 0 19.83 8.8 19.83 19.655"/>
        <path fill="#020202" d="M21.577 15.406v-1.862c0-.907.61-1.118 1.04-1.118h2.634v-3.99l-3.63-.015c-4.027 0-4.943 2.975-4.943 4.88v2.105h-2.33V20.062h2.35v11.642h4.698V20.062h3.486l.169-1.829.26-2.827h-3.734z"/>
    </g>
</svg>
