<svg xmlns="http://www.w3.org/2000/svg" width="40" height="40" viewBox="0 0 40 40">
    <g fill="none" fill-rule="evenodd">
        <path fill="#FFF" d="M39.66 20.082c0 10.856-8.879 19.656-19.83 19.656C8.878 39.738 0 30.938 0 20.082 0 9.226 8.878.426 19.83.426c10.951 0 19.83 8.8 19.83 19.656"/>
        <path fill="#09090A" d="M29.286 27.225c0 1.23-1.01 2.23-2.252 2.23h-14.41c-1.241 0-2.25-1-2.25-2.23v-9.532h3.506a6.202 6.202 0 0 0-.227.657 6.247 6.247 0 0 0-.246 1.732c0 3.51 2.882 6.366 6.423 6.366s6.423-2.856 6.423-6.366c0-.601-.088-1.182-.247-1.733a6.361 6.361 0 0 0-.227-.656h3.507v9.532zm-12.808-9.532a4.144 4.144 0 0 1 6.704 0c.09.125.172.256.248.39.337.593.535 1.273.535 1.999 0 2.259-1.857 4.097-4.135 4.097-2.28 0-4.135-1.838-4.135-4.097 0-.726.198-1.407.535-1.999a4.39 4.39 0 0 1 .248-.39zm11.859-6.568l.518-.003V15.068l-3.966.013-.014-3.946 3.462-.01zM27.034 8.44h-14.41c-2.503 0-4.538 2.017-4.538 4.498v14.286c0 2.48 2.035 4.498 4.538 4.498h14.41c2.503 0 4.54-2.018 4.54-4.498V12.939c0-2.48-2.037-4.498-4.54-4.498z"/>
    </g>
</svg>
