<svg xmlns="http://www.w3.org/2000/svg" width="12" height="17" viewBox="0 0 12 17">
    <path fill="#D0021B" fill-rule="evenodd" d="M6 0C3.402 0 1.312 2.218 1.312 4.964v1.993C.452 7.047 0 7.797 0 8.708v6.535C0 16.215.762 17 1.705 17h8.59C11.24 17 12 16.215 12 15.243V8.708c0-.91-.452-1.667-1.312-1.757V4.964C10.688 2.217 8.598 0 6 0zm0 1.927c1.663 0 3 1.359 3 3.05V6.95H3V4.977c0-1.691 1.337-3.05 3-3.05zm0 7.537c.725 0 1.312.605 1.312 1.353 0 .474-.238.894-.598 1.135.02.07.036.14.036.217v1.546a.76.76 0 0 1-.75.773.76.76 0 0 1-.75-.773V12.17a.8.8 0 0 1 .036-.217 1.366 1.366 0 0 1-.598-1.135c0-.748.587-1.353 1.312-1.353z"/>
</svg>
