<svg xmlns="http://www.w3.org/2000/svg" width="21" height="27" viewBox="0 0 21 27">
    <g>
        <path d="M10.788 2.186A8.724 8.724 0 0 1 17.7 5.597a8.776 8.776 0 0 1 1.53 7.57 8.753 8.753 0 0 1-5.044 5.84l-.34.146-.164.327a203.533 203.533 0 0 1-2.894 5.298 199.497 199.497 0 0 1-2.893-5.294l-.172-.327-.34-.145a8.752 8.752 0 0 1-5.053-5.843A8.774 8.774 0 0 1 3.864 5.59a8.722 8.722 0 0 1 6.924-3.404zm0-1.036A9.757 9.757 0 0 0 3.06 4.964a9.814 9.814 0 0 0-1.71 8.466 9.78 9.78 0 0 0 5.637 6.531c2.032 3.878 3.801 6.89 3.801 6.89s1.77-3.012 3.801-6.89a9.782 9.782 0 0 0 5.637-6.53 9.814 9.814 0 0 0-1.71-8.467 9.758 9.758 0 0 0-7.728-3.814z"/>
        <path d="M10.788 8.51c.981 0 1.865.592 2.24 1.5a2.435 2.435 0 0 1-.525 2.65 2.418 2.418 0 0 1-2.643.527 2.431 2.431 0 0 1-1.496-2.246 2.43 2.43 0 0 1 2.424-2.432zm0-1.037a3.457 3.457 0 0 0-3.194 2.141 3.474 3.474 0 0 0 .75 3.779 3.45 3.45 0 0 0 3.767.751 3.467 3.467 0 0 0 2.135-3.203c0-.92-.365-1.801-1.013-2.452a3.457 3.457 0 0 0-2.445-1.016z"/>
    </g>
</svg>
