<svg xmlns="http://www.w3.org/2000/svg" width="16" height="14" viewBox="0 0 16 14">
    <g fill="#D0021B" fill-rule="evenodd">
        <path d="M.001 1.122c.015.307.16.594.397.786l5.068 5.13L.398 12.17c-.209.2-.329.478-.33.769.003.434.266.823.664.984.398.163.852.062 1.151-.249l5.812-5.883a1.08 1.08 0 0 0 0-1.504L1.883.404C1.6.04 1.113-.096.684.069a1.07 1.07 0 0 0-.683 1.053z"/>
        <path d="M8.001 1.122c.015.307.16.594.397.786l5.068 5.13-5.068 5.132c-.209.2-.329.478-.33.769.003.434.266.823.664.984.398.163.852.062 1.151-.249l5.812-5.883a1.08 1.08 0 0 0 0-1.504L9.883.404C9.6.04 9.113-.096 8.684.069a1.07 1.07 0 0 0-.683 1.053z"/>
    </g>
</svg>
