<svg xmlns="http://www.w3.org/2000/svg" width="16" height="14" viewBox="0 0 16 14">
    <g fill="#A0A0A0" fill-rule="evenodd">
        <path d="M15.999 1.122a1.076 1.076 0 0 1-.397.786l-5.068 5.13 5.068 5.132c.209.2.329.478.33.769a1.07 1.07 0 0 1-.664.984 1.046 1.046 0 0 1-1.151-.249L8.305 7.791a1.08 1.08 0 0 1 0-1.504L14.117.404c.284-.364.77-.5 1.199-.335.429.163.705.59.683 1.053z"/>
        <path d="M7.999 1.122a1.076 1.076 0 0 1-.397.786l-5.068 5.13 5.068 5.132c.209.2.329.478.33.769a1.07 1.07 0 0 1-.664.984 1.046 1.046 0 0 1-1.151-.249L.305 7.791a1.08 1.08 0 0 1 0-1.504L6.117.404c.284-.364.77-.5 1.199-.335.429.163.705.59.683 1.053z"/>
    </g>
</svg>
