<svg xmlns="http://www.w3.org/2000/svg" width="41" height="32" viewBox="0 0 41 32">
    <path fill="#000" fill-rule="evenodd" d="M29.964 22.012l.226 9.004a.975.975 0 0 1-.957.969h-.023a.974.974 0 0 1-.98-.945l-.225-9.005c0-3.097-3.248-5.414-7.556-5.414-4.306.002-7.563 2.317-7.563 5.391l-.217 9.041a.977.977 0 0 1-1.004.947.974.974 0 0 1-.955-.994l.23-9.018c0-4.153 4.091-7.303 9.515-7.303 5.423 0 9.509 3.15 9.509 7.328zM14.076 6.301A6.302 6.302 0 0 1 18.007.479a6.42 6.42 0 0 1 6.941 1.367 6.246 6.246 0 0 1 1.38 6.866c-.986 2.353-3.307 3.888-5.883 3.888-3.517 0-6.369-2.82-6.369-6.3zm1.96 0a4.362 4.362 0 0 0 2.721 4.03 4.447 4.447 0 0 0 4.806-.947 4.326 4.326 0 0 0 .955-4.753 4.406 4.406 0 0 0-4.073-2.692c-2.436 0-4.41 1.954-4.41 4.362zm24.813 18.148c0-3.15-3.052-5.549-7.113-5.549a.974.974 0 0 0-.98.97c0 .535.438.969.98.969 2.94 0 5.138 1.54 5.138 3.61l.166 6.464c.014.527.45.947.98.945h.025a.972.972 0 0 0 .955-.97l-.15-6.44zm-7.113-6.484a4.847 4.847 0 0 1-4.48-2.955 4.753 4.753 0 0 1 1.046-5.225 4.883 4.883 0 0 1 5.282-1.04 4.791 4.791 0 0 1 2.991 4.427c-.002 2.645-2.166 4.787-4.84 4.793zm0-1.938c1.167 0 2.22-.695 2.665-1.763a2.833 2.833 0 0 0-.625-3.11 2.91 2.91 0 0 0-3.145-.619 2.855 2.855 0 0 0-1.781 2.637c0 1.577 1.291 2.855 2.886 2.855zM7.28 18.9C3.22 18.9.166 21.3.166 24.424L0 30.888c0 .527.423.956.955.97H.98a.973.973 0 0 0 .98-.945l.166-6.49c0-2.02 2.214-3.585 5.154-3.585.542 0 .98-.433.98-.969a.974.974 0 0 0-.98-.97v.001zm4.846-5.747a4.794 4.794 0 0 1-2.974 4.445 4.883 4.883 0 0 1-5.29-1.024 4.756 4.756 0 0 1-1.06-5.225A4.844 4.844 0 0 1 7.28 8.385c2.67.01 4.828 2.152 4.83 4.793l.016-.025zm-1.96 0a2.854 2.854 0 0 0-1.795-2.623 2.91 2.91 0 0 0-3.139.63 2.833 2.833 0 0 0-.616 3.108 2.884 2.884 0 0 0 2.664 1.759c1.587-.008 2.869-1.282 2.87-2.85l.016-.024z"/>
</svg>
