<svg xmlns="http://www.w3.org/2000/svg" width="30" height="36" viewBox="0 0 30 36">
    <g fill="#000" fill-rule="evenodd">
        <path d="M5.625 7.844A2.346 2.346 0 0 1 3.281 5.5a2.346 2.346 0 0 1 2.344-2.344A2.346 2.346 0 0 1 7.969 5.5a2.346 2.346 0 0 1-2.344 2.344zm0-3.125a.784.784 0 0 0-.781.781c0 .43.351.782.781.782.43 0 .781-.352.781-.782a.784.784 0 0 0-.781-.781zM5.625 17.219a2.346 2.346 0 0 1-2.344-2.344 2.346 2.346 0 0 1 2.344-2.344 2.346 2.346 0 0 1 2.344 2.344 2.346 2.346 0 0 1-2.344 2.344zm0-3.125a.784.784 0 0 0-.781.781c0 .43.351.781.781.781.43 0 .781-.351.781-.78a.784.784 0 0 0-.781-.782zM5.625 26.594a2.346 2.346 0 0 1-2.344-2.344 2.346 2.346 0 0 1 2.344-2.343 2.346 2.346 0 0 1 2.344 2.343 2.346 2.346 0 0 1-2.344 2.344zm0-3.125a.782.782 0 0 0 0 1.563.782.782 0 0 0 0-1.563zM26.719 29.719a.781.781 0 0 1-.781-.781 3.13 3.13 0 0 0-3.125-3.125 3.13 3.13 0 0 0-3.125 3.125.781.781 0 1 1-1.563 0 4.691 4.691 0 0 1 4.688-4.688 4.691 4.691 0 0 1 4.687 4.688c0 .431-.35.781-.781.781z"/>
        <path d="M22.813 30.5a.781.781 0 0 1-.553-1.334l1.105-1.105a.783.783 0 0 1 1.106 1.105l-1.106 1.105a.78.78 0 0 1-.553.229z"/>
        <path d="M23.584 21.951c.002-.016.01-.03.01-.045V2.376A2.346 2.346 0 0 0 21.25.03H2.5A2.346 2.346 0 0 0 .156 2.375v25A2.346 2.346 0 0 0 2.5 29.72h13.328c.39 3.51 3.371 6.25 6.985 6.25a7.04 7.04 0 0 0 7.03-7.031c0-3.617-2.744-6.6-6.26-6.987h.001zM1.719 10.969h20.313v7.812H1.719v-7.812zM2.5 1.594h18.75c.432 0 .782.351.782.78v7.032H1.719V2.375c0-.43.352-.782.781-.782zm-.781 25.78v-7.03h20.313v1.562c0 .016.007.03.01.045a7.039 7.039 0 0 0-6.214 6.205H2.5a.782.782 0 0 1-.781-.781zm21.094 7.032a5.475 5.475 0 0 1-5.469-5.47 5.475 5.475 0 0 1 5.469-5.468 5.475 5.475 0 0 1 5.469 5.468 5.475 5.475 0 0 1-5.469 5.47z"/>
    </g>
</svg>
