<svg xmlns="http://www.w3.org/2000/svg" width="48" height="37" viewBox="0 0 48 37">
    <path fill="#000" fill-rule="evenodd" stroke="#000" stroke-width=".5" d="M11.638 14.029c.288.24.288.672.048.961L4.69 22.636c-.145.144-.336.24-.48.24a.69.69 0 0 1-.479-.192c-.288-.24-.288-.672-.048-.961l6.996-7.646c.24-.289.672-.289.959-.048zM32.195 3.45c-.288-.289-.719-.289-.959 0L18.634 16.05c-.43.432-1.103.432-1.486 0L4.545 3.451c-.288-.289-.719-.289-.958 0-.288.29-.288.721 0 .962L16.14 17.009c.479.48 1.053.721 1.725.721.67 0 1.247-.24 1.726-.721L32.146 4.413c.288-.288.288-.721.048-.962zM47 13.741c0 .192-.049.432-.24.577l-6.324 5.529a1.12 1.12 0 0 1-.814.336c-.768 0-1.438-.672-3.115-2.596-.144-.191-.288-.432-.479-.865-.095-.192-.24-.53-.335-.722-2.252.432-4.122 1.298-5.799 2.74-.049.05-.049.096-.095.096-.145.096-.24.192-.335.29-.096.095-.24.191-.335.289-.05.049-.096.049-.145.095-1.628 1.443-2.73 3.174-3.45 5.385.192.144.48.336.67.432.385.24.624.385.815.576 1.628 1.828 2.205 2.645 2.156 3.366 0 .336-.19.625-.43.866l-6.422 5.673c-.144.096-.288.192-.43.192h-.145c-1.868-.385-3.833-2.212-3.882-6.3 0-.431.191-.96.43-1.537.145-.29.336-.817.336-.962 0-.721.095-1.442.288-2.115H4.498C2.582 25.086 1 23.5 1 21.576V4.51C1 2.587 2.582 1 4.498 1h26.785c1.916 0 3.498 1.587 3.498 3.51v5.338c.91-.24 1.821-.385 2.78-.385.383 0 .767 0 1.149.049.24 0 .67-.096 1.007-.192.574-.145 1.149-.29 1.581-.24 4.025.526 5.558 2.738 5.701 4.661H47zm-27.647 9.903c1.198-3.125 3.784-5.77 6.564-8.222l.288-.29c2.156-1.874 4.552-3.797 7.187-4.856v-5.77a2.15 2.15 0 0 0-2.156-2.163l-26.738.003A2.15 2.15 0 0 0 2.342 4.51v16.972a2.15 2.15 0 0 0 2.156 2.164l14.855-.002zM45.61 13.501c-.24-1.298-1.533-2.694-4.503-3.077-.24 0-.67.096-1.054.192-.574.145-1.149.29-1.533.24-.335-.048-.67-.048-.958-.048-3.833 0-7.427 2.74-10.446 5.384l-.337.29c-3.499 3.075-6.709 6.49-6.757 10.672 0 .432-.191.913-.43 1.491-.145.336-.336.817-.336 1.01 0 3.03 1.247 4.472 2.445 4.904l6.038-5.337c-.144-.432-1.293-1.779-1.821-2.309-.049-.048-.288-.191-.48-.289-.767-.432-1.581-.961-1.341-1.778.814-2.596 2.107-4.617 4.024-6.346.048-.05.048-.05.095-.05.096-.095.191-.144.288-.24.096-.095.191-.144.289-.24 0-.049.048-.049.095-.096 1.917-1.682 4.073-2.693 6.804-3.174h.144c.719 0 1.102.817 1.437 1.587.096.192.191.432.24.53.48.577 1.628 1.923 2.06 2.115l6.037-5.431z"/>
</svg>
