<svg xmlns="http://www.w3.org/2000/svg" width="18" height="18" viewBox="0 0 18 18">
    <path fill="#000" fill-rule="evenodd" d="M5.552 1.672c.386.386.773.77 1.158 1.158.678.684.68 1.481.004 2.16-.484.486-.966.976-1.46 1.453-.13.126-.14.23-.074.388.324.779.793 1.468 1.32 2.116 1.06 1.303 2.258 2.46 3.688 3.357.307.192.646.332.964.505.164.09.276.061.407-.075.484-.5.978-.987 1.472-1.476.646-.64 1.458-.642 2.107.001.794.786 1.583 1.575 2.37 2.368.66.665.655 1.476-.008 2.146-.448.453-.923.882-1.347 1.356-.617.69-1.39.913-2.276.865-1.287-.07-2.475-.498-3.617-1.054a19.678 19.678 0 0 1-6.532-5.11C2.385 10.231 1.273 8.49.543 6.525.19 5.574-.063 4.6.013 3.57c.048-.636.288-1.176.756-1.623.503-.478.982-.983 1.478-1.47.648-.637 1.46-.636 2.11.003.402.393.797.794 1.195 1.192z"/>
</svg>
