<svg xmlns="http://www.w3.org/2000/svg" width="28" height="36" viewBox="0 0 28 36">
    <path fill="#000" fill-rule="evenodd" d="M24.181 12.857v-2.572C24.181 4.614 19.614 0 14 0 8.386 0 3.818 4.614 3.818 10.285v2.572C1.714 12.857 0 14.587 0 16.715v15.428C0 34.269 1.714 36 3.818 36h20.364C26.288 36 28 34.269 28 32.143V16.715c0-2.128-1.712-3.858-3.818-3.858zM6.363 10.285c0-4.254 3.426-7.713 7.637-7.713 4.212 0 7.637 3.46 7.637 7.713v2.572H6.363v-2.572zm19.092 21.858a1.28 1.28 0 0 1-1.274 1.285H3.818a1.28 1.28 0 0 1-1.272-1.285V16.715c0-.71.57-1.287 1.272-1.287h20.363c.702 0 1.274.577 1.274 1.287v15.428zm-10.183-8.645v-2.926c0-.712-.57-1.287-1.272-1.287-.703 0-1.273.575-1.273 1.287v2.926a2.569 2.569 0 0 0-1.272 2.217c0 1.419 1.14 2.57 2.545 2.57 1.406 0 2.546-1.151 2.546-2.57 0-.95-.515-1.77-1.274-2.217z"/>
</svg>
