<svg xmlns="http://www.w3.org/2000/svg" width="14" height="15" viewBox="0 0 14 15">
    <g fill="#D0021B" fill-rule="evenodd">
        <path d="M8.047 0H5.331c-.587 0-1.074.486-1.074 1.074v.953H.405a.406.406 0 0 0 0 .81h1.217v10.866c0 .71.587 1.297 1.297 1.297h7.56c.71 0 1.298-.587 1.298-1.297V2.838h1.217a.406.406 0 0 0 0-.811H9.122v-.953C9.122.486 8.635 0 8.047 0zm-2.98 1.074c0-.141.123-.263.264-.263h2.716c.142 0 .264.122.264.263v.953H5.067v-.953zm5.879 1.764v10.865a.493.493 0 0 1-.486.486H2.919a.493.493 0 0 1-.487-.486V2.838h8.514z"/>
        <path d="M6.69 4.662a.406.406 0 0 0-.406.406v7.297a.406.406 0 0 0 .81 0V5.068a.406.406 0 0 0-.405-.406zM4.46 4.662a.406.406 0 0 0-.406.406v7.297a.406.406 0 0 0 .81 0V5.068a.406.406 0 0 0-.405-.406zM8.514 5.068v7.297a.406.406 0 0 0 .81 0V5.068a.406.406 0 0 0-.81 0z"/>
    </g>
</svg>
