<svg xmlns="http://www.w3.org/2000/svg" width="30" height="34" viewBox="0 0 30 34">
    <g fill="none" fill-rule="evenodd">
        <g fill="#000">
            <path d="M14.712 28.867C5.702 25.234 4.82 15.09 4.588 5.827a.787.787 0 0 1 1.04-.759c6.366 2.22 12.38 2.22 18.743 0a.785.785 0 0 1 1.04.791c-.33 9.104-.983 19.397-10.124 23.008a.765.765 0 0 1-.575 0zm-6.665-9.35c1.27 3.555 3.391 6.269 6.955 7.77 7.668-3.236 8.533-12.401 8.81-20.382-5.961 1.869-11.658 1.869-17.62 0 .162 4.794.608 9.111 1.855 12.613z"/>
            <path d="M14.712 33.886c-6.03-2.436-9.505-6.71-11.597-12.58C1.083 15.62.47 8.592.262.81A.785.785 0 0 1 1.303.053c9.304 3.244 18.09 3.244 27.394 0a.784.784 0 0 1 1.04.79c-.473 13.042-1.375 27.871-14.449 33.041a.792.792 0 0 1-.576.002zM4.592 20.779c1.889 5.289 5.06 9.317 10.41 11.528 5.345-2.211 8.52-6.239 10.404-11.528 1.87-5.235 2.501-11.703 2.73-18.885-8.9 2.885-17.377 2.885-26.276 0 .234 7.18.863 13.649 2.732 18.885z"/>
        </g>
        <path fill="#000" d="M19.345 12.407c.339-.37.879.17.54.54-1.881 2.127-3.778 4.224-5.674 6.337-.093.107-.185.2-.278.308-.139.154-.401.138-.54 0-.956-.91-1.911-1.835-2.868-2.745-.355-.339.185-.894.54-.54.863.818 1.712 1.635 2.575 2.468 1.912-2.128 3.809-4.24 5.705-6.368z"/>
        <path stroke="#000" d="M19.345 12.407c.339-.37.879.17.54.54-1.881 2.127-3.778 4.224-5.674 6.337-.093.107-.185.2-.278.308-.139.154-.401.138-.54 0-.956-.91-1.911-1.835-2.868-2.745-.355-.339.185-.894.54-.54.863.818 1.712 1.635 2.575 2.468 1.912-2.128 3.809-4.24 5.705-6.368z"/>
    </g>
</svg>
