<svg xmlns="http://www.w3.org/2000/svg" width="28" height="28" viewBox="0 0 28 28">
    <path fill="#FFF" fill-rule="evenodd" stroke="#FFF" stroke-width=".5" d="M18.456 16.406c1.345-1.68 1.875-3.584 1.875-5.77C20.33 5.315 15.988 1 10.665 1 5.342 1.028 1 5.342 1 10.665c0 5.323 4.342 9.637 9.637 9.637 2.13 0 4.033-.53 5.77-1.874L24.978 27l2.048-2.049-8.57-8.545zm-7.819 1.6a7.318 7.318 0 0 1-7.313-7.313 7.319 7.319 0 0 1 7.313-7.312 7.317 7.317 0 0 1 7.313 7.313 7.317 7.317 0 0 1-7.313 7.311z"/>
</svg>
