<svg xmlns="http://www.w3.org/2000/svg" width="15" height="16" viewBox="0 0 15 16">
    <path fill="#000" fill-rule="evenodd" d="M3.432 9.16a1.314 1.314 0 0 0 .502-1.823A1.395 1.395 0 0 0 2.06 6.85a1.313 1.313 0 0 0-.502 1.822 1.394 1.394 0 0 0 1.875.489zm1.266.72a2.739 2.739 0 0 1-.58.435c-1.313.737-2.992.3-3.75-.977C-.39 8.062.06 6.431 1.373 5.694a2.805 2.805 0 0 1 3.332.44l4.904-2.751C9.28 2.238 9.774.979 10.882.358c1.313-.737 2.992-.3 3.75.977.758 1.276.308 2.907-1.004 3.644a2.805 2.805 0 0 1-3.332-.441L5.39 7.29c.137.478.13.975-.003 1.437l4.874 2.735a2.805 2.805 0 0 1 3.332-.44c1.313.736 1.762 2.368 1.005 3.643-.758 1.277-2.438 1.714-3.75.977-1.108-.621-1.601-1.88-1.273-3.024L4.698 9.88zm8.243-6.056a1.314 1.314 0 0 0 .502-1.822 1.394 1.394 0 0 0-1.874-.489 1.313 1.313 0 0 0-.503 1.822 1.395 1.395 0 0 0 1.875.489zm-1.406 10.663c.656.368 1.495.15 1.874-.488a1.313 1.313 0 0 0-.501-1.822 1.394 1.394 0 0 0-1.876.487 1.315 1.315 0 0 0 .503 1.823z"/>
</svg>
