<svg xmlns="http://www.w3.org/2000/svg" width="33" height="26" viewBox="0 0 33 26">
    <g fill="#FFF" fill-rule="evenodd" transform="translate(1 .99)">
        <path stroke="#FFF" stroke-width=".5" d="M30.014 4.478H8.15L7.025.662a.86.86 0 0 0-.823-.617L.863.027A.861.861 0 0 0 0 .887a.86.86 0 0 0 .858.865l4.698.015 4.008 13.588c1.38 4.755 2.124 7.21 2.231 7.365.162.234.434 0 .717 0h11.48c.476 0 .853-.013.853-.49s-.296-.613-.772-.613H13.228l-1.553-5.211h14.542c.36 0 .68-.224.807-.56L30.82 5.641a.86.86 0 0 0-.807-1.163zM25.62 14.682H11.16l-2.5-8.478h20.116l-3.156 8.478z"/>
        <path d="M8.306 5.348H28.88l-2.524 10.246H10.909z"/>
        <ellipse cx="24.993" cy="22.185" stroke="#FFF" rx="2.193" ry="2.199"/>
        <ellipse cx="12.327" cy="22.185" stroke="#FFF" rx="2.193" ry="2.199"/>
    </g>
</svg>
