<svg xmlns="http://www.w3.org/2000/svg" width="40" height="35" viewBox="0 0 40 35">
    <g fill="#000" fill-rule="evenodd" stroke="#000" stroke-width=".5">
        <path d="M12.497 2.281h.614a1.87 1.87 0 0 1 1.868 1.87v1.243a.637.637 0 0 0 1.274 0L16.25 4.15a3.144 3.144 0 0 0-3.14-3.14l-.614-.002a3.144 3.144 0 0 0-3.14 3.14v1.244a.637.637 0 0 0 1.273 0l-.002-1.242a1.87 1.87 0 0 1 1.87-1.869zM26.889 2.281h.614a1.87 1.87 0 0 1 1.868 1.87v1.243a.637.637 0 0 0 1.273 0V4.15a3.144 3.144 0 0 0-3.14-3.14h-.613a3.144 3.144 0 0 0-3.14 3.14v1.244a.637.637 0 0 0 1.273 0l-.002-1.244a1.869 1.869 0 0 1 1.867-1.869zM2.392 11.439c0 2.139 1.74 3.879 3.88 3.879 2.138 0 3.878-1.74 3.878-3.88 0-2.139-1.74-3.879-3.879-3.879-2.139 0-3.879 1.74-3.879 3.88zm3.88-2.606a2.61 2.61 0 0 1 2.605 2.606 2.61 2.61 0 0 1-2.606 2.606 2.61 2.61 0 0 1-2.606-2.606 2.607 2.607 0 0 1 2.606-2.606zM9.802 31.72v-4.122a2.209 2.209 0 0 0 1.74-2.155V19.75a3.896 3.896 0 0 0-3.89-3.89H4.89A3.895 3.895 0 0 0 1 19.75v5.692a2.21 2.21 0 0 0 1.74 2.155v4.122c0 1.216.989 2.205 2.204 2.205h2.652c1.216 0 2.206-.99 2.206-2.205zm-1.273 0a.935.935 0 0 1-.933.934H4.944a.935.935 0 0 1-.934-.934v-5.345h-.806a.934.934 0 0 1-.934-.932l.003-5.692a2.62 2.62 0 0 1 2.618-2.617h2.76a2.62 2.62 0 0 1 2.618 2.617v5.692a.933.933 0 0 1-.933.932h-.807l.002 5.345h-.002zM21.326 33.925c1.216 0 2.205-.99 2.205-2.205v-4.122a2.209 2.209 0 0 0 1.74-2.156v-5.691a3.896 3.896 0 0 0-3.89-3.89H18.62a3.895 3.895 0 0 0-3.891 3.89v5.691a2.21 2.21 0 0 0 1.74 2.156v4.122c0 1.215.99 2.205 2.205 2.205h2.652zm-3.584-2.205v-5.346h-.806a.934.934 0 0 1-.934-.931V19.75a2.62 2.62 0 0 1 2.618-2.617h2.76a2.62 2.62 0 0 1 2.618 2.617v5.692a.933.933 0 0 1-.933.931h-.807v5.346a.935.935 0 0 1-.933.933h-2.653a.934.934 0 0 1-.93-.933zM19.693 7.694a3.144 3.144 0 0 0-3.14 3.14v1.244a3.144 3.144 0 0 0 3.14 3.14h.614a3.144 3.144 0 0 0 3.14-3.14v-1.243a3.144 3.144 0 0 0-3.14-3.14h-.614zm2.482 3.14v1.244a1.87 1.87 0 0 1-1.868 1.869h-.614a1.87 1.87 0 0 1-1.869-1.869v-1.243a1.87 1.87 0 0 1 1.869-1.87h.614c1.03 0 1.868.84 1.868 1.87zM37.26 27.597A2.209 2.209 0 0 0 39 25.44v-5.69a3.896 3.896 0 0 0-3.89-3.891h-2.762a3.895 3.895 0 0 0-3.89 3.89v5.692a2.21 2.21 0 0 0 1.74 2.156v4.121c0 1.216.99 2.206 2.205 2.206h2.652c1.215 0 2.205-.99 2.205-2.206v-4.122zm-1.272-1.223v5.346a.935.935 0 0 1-.933.933h-2.652a.935.935 0 0 1-.934-.933v-5.345h-.806a.934.934 0 0 1-.934-.932l.002-5.692a2.62 2.62 0 0 1 2.617-2.617h2.761a2.62 2.62 0 0 1 2.618 2.617v5.692a.933.933 0 0 1-.934.932h-.805zM33.422 7.694a3.144 3.144 0 0 0-3.14 3.14v1.244a3.144 3.144 0 0 0 3.14 3.14h.614a3.144 3.144 0 0 0 3.14-3.14v-1.243a3.144 3.144 0 0 0-3.14-3.14h-.614zm2.482 3.14v1.244a1.87 1.87 0 0 1-1.868 1.869h-.614a1.87 1.87 0 0 1-1.869-1.869v-1.243a1.87 1.87 0 0 1 1.869-1.87h.614c1.03 0 1.868.84 1.868 1.87z"/>
    </g>
</svg>
