<svg xmlns="http://www.w3.org/2000/svg" xmlns:xlink="http://www.w3.org/1999/xlink" width="34" height="34" viewBox="0 0 34 34">
    <defs>
        <path id="a" d="M15 0C6.7 0 0 6.7 0 15s6.7 15 15 15 15-6.7 15-15S23.3 0 15 0z"/>
    </defs>
    <g fill="none" fill-rule="evenodd">
        <path stroke="#AFAFAF" stroke-width="2.5" d="M17 2C8.7 2 2 8.7 2 17s6.7 15 15 15 15-6.7 15-15S25.3 2 17 2z"/>
        <g transform="translate(2 2)">
            <mask id="b" fill="#fff">
                <use xlink:href="#a"/>
            </mask>
            <g fill="#AFAFAF" mask="url(#b)">
                <path d="M14.836 5.625c3.174 0 5.797 2.62 5.797 5.797a5.77 5.77 0 0 1-5.797 5.797c-3.22 0-5.797-2.619-5.797-5.797 0-3.178 2.624-5.797 5.797-5.797zM23.764 29.625H5.897c-.7 0-1.352-.335-1.726-.957a2.18 2.18 0 0 1-.186-2.01c1.773-4.547 6.065-7.468 10.87-7.468 4.805 0 9.097 2.92 10.87 7.468.231.67.138 1.436-.235 2.01-.374.574-1.026.957-1.726.957z"/>
            </g>
        </g>
    </g>
</svg>
