<svg xmlns="http://www.w3.org/2000/svg" width="40" height="40" viewBox="0 0 40 40">
    <g fill="none" fill-rule="evenodd">
        <path fill="#FFF" d="M39.83 19.83c0 10.95-8.878 19.83-19.83 19.83C9.048 39.66.17 30.78.17 19.83.17 8.877 9.048 0 20 0c10.952 0 19.83 8.878 19.83 19.83"/>
        <path fill="#050505" d="M23.92 19.635l-6.344 3.428-.002-5.277v-1.604l2.861 1.557 3.485 1.896zm7.588-4.647s-.228-1.689-.932-2.431c-.893-.975-1.894-.981-2.352-1.038-3.289-.246-8.218-.246-8.218-.246h-.01s-4.933 0-8.219.248c-.459.055-1.458.061-2.354 1.036-.702.743-.932 2.432-.932 2.432s-.235 1.981-.235 3.964V20.81c0 1.983.235 3.965.235 3.965s.23 1.688.932 2.43c.896.976 2.07.945 2.591 1.046 1.88.188 7.986.247 7.986.247s4.935-.009 8.224-.255c.458-.057 1.459-.062 2.352-1.038.704-.743.932-2.43.932-2.43s.237-1.982.237-3.965v-1.857c0-1.983-.237-3.965-.237-3.965z"/>
    </g>
</svg>
